# xmcd
#
# Track frame offsets:
#	150
#	21584
#	51179
#	71837
#	93038
#	121335
#	142591
#	167305
#	186906
#	222008
#	238040
#	256456
#
# Disc length: 3793 seconds
#
# Revision: 0
# Processed by: cddbd v1.5.1PL0 Copyright (c) Steve Scherf et al.
# Submitted via: audiograbber 1.83.01
#
DISCID=a10ecf0c
DTITLE=Joe Ely - Milan 4-13-98 Disc 2
DYEAR=1998
DGENRE=Country
TTITLE0=Gangster's Of Love
TTITLE1=I'm Blue
TTITLE2=Pins And Needles
TTITLE3=The Road Goes On Forever
TTITLE4=Boxcars
TTITLE5=Road Hawg
TTITLE6=Oh Boy
TTITLE7=Roll Again
TTITLE8=Settle For Love
TTITLE9=Row Of Dominoes
TTITLE10=If You Were A Bluebird
TTITLE11=My Eyes Go Lucky
EXTD=
EXTT0=
EXTT1=
EXTT2=
EXTT3=
EXTT4=
EXTT5=
EXTT6=
EXTT7=
EXTT8=
EXTT9=
EXTT10=
EXTT11=
PLAYORDER=
